{"glyphs":{"夷":{"ha":1389,"x_min":54,"x_max":1346,"o":"m 772 359 q 1346 -22 924 81 l 1285 -123 q 700 304 845 7 q 487 25 633 130 q 118 -131 346 -76 l 61 -35 q 422 108 292 11 q 614 359 549 202 l 242 359 q 217 260 233 320 l 104 279 q 182 653 159 454 l 636 653 l 636 778 l 143 778 l 143 864 l 636 864 l 636 977 l 54 977 l 54 1065 l 636 1065 l 636 1187 l 742 1187 l 742 1065 l 1333 1065 l 1333 977 l 742 977 l 742 864 l 1228 864 l 1228 568 l 742 568 l 742 444 l 1314 444 q 1283 205 1305 261 q 1227 140 1264 157 q 1149 126 1200 126 q 1019 136 1084 126 l 998 227 q 1121 215 1074 215 q 1183 254 1171 215 q 1200 359 1192 281 l 772 359 m 636 568 l 279 568 l 276 543 q 260 444 267 478 l 636 444 l 636 568 m 742 653 l 1121 653 l 1121 778 l 742 778 l 742 653 z "},"井":{"ha":1389,"x_min":39,"x_max":1354,"o":"m 394 913 l 394 1175 l 507 1175 l 507 913 l 888 913 l 888 1187 l 1000 1187 l 1000 913 l 1301 913 l 1301 814 l 1000 814 l 1000 449 l 1354 449 l 1354 351 l 1000 351 l 1000 -132 l 888 -132 l 888 351 l 505 351 q 439 83 501 186 q 203 -129 364 -41 l 122 -43 q 348 157 289 41 q 392 351 385 231 l 39 351 l 39 449 l 394 449 l 394 814 l 88 814 l 88 913 l 394 913 m 888 814 l 507 814 l 507 449 l 888 449 l 888 814 z "},"益":{"ha":1389,"x_min":26,"x_max":1365,"o":"m 236 18 l 236 443 q 92 353 177 399 l 26 437 q 233 566 153 498 q 454 835 367 677 l 65 835 l 65 926 l 452 926 q 446 940 450 933 q 328 1145 403 1034 l 425 1189 q 561 964 494 1097 l 479 926 l 803 926 q 957 1193 877 1031 l 1065 1150 q 915 926 998 1034 l 1325 926 l 1325 835 l 930 835 q 1104 628 1008 712 q 1365 464 1210 535 l 1304 372 q 1152 461 1208 422 l 1152 18 l 1354 18 l 1354 -75 l 35 -75 l 35 18 l 236 18 m 513 372 l 339 372 l 339 18 l 513 18 l 513 372 m 611 372 l 611 18 l 777 18 l 777 372 l 611 372 m 873 372 l 873 18 l 1048 18 l 1048 372 l 873 372 m 262 463 l 1150 463 q 817 835 930 614 l 567 835 l 562 825 q 262 463 452 611 z "},"家":{"ha":1389,"x_min":74,"x_max":1343,"o":"m 844 376 q 1343 77 1034 177 l 1271 -26 q 942 168 1071 59 q 838 270 884 216 q 844 161 844 224 q 812 -43 844 26 q 659 -130 772 -130 q 505 -121 602 -130 l 481 -21 q 635 -33 576 -33 q 709 2 691 -33 q 734 182 734 54 q 728 288 734 239 q 142 -69 493 62 l 74 18 q 544 252 336 103 q 703 385 637 318 q 672 460 690 422 q 156 192 465 292 l 95 278 q 633 528 387 354 q 586 587 610 562 q 151 435 370 487 l 87 519 q 669 721 403 578 l 270 721 l 270 811 l 1113 811 l 1113 721 l 827 721 q 670 629 747 669 q 787 444 740 554 q 1138 661 977 537 l 1220 582 q 844 376 1027 456 m 742 1029 l 1291 1029 l 1291 745 l 1182 745 l 1182 938 l 198 938 l 198 745 l 90 745 l 90 1029 l 635 1029 l 635 1187 l 742 1187 l 742 1029 z "},"火":{"ha":1389,"x_min":69,"x_max":1340,"o":"m 744 1187 l 744 885 q 897 357 744 595 q 1340 -21 1043 128 l 1263 -123 q 861 212 1012 16 q 702 545 753 353 q 548 165 663 332 q 144 -123 421 -19 l 69 -31 q 496 289 356 65 q 633 875 633 509 l 633 1187 l 744 1187 m 126 514 q 288 943 237 688 l 398 920 q 226 444 342 633 l 126 514 m 935 557 q 1177 982 1076 748 l 1286 930 q 1027 507 1166 681 l 935 557 z "},"革":{"ha":1389,"x_min":35,"x_max":1354,"o":"m 743 753 l 743 652 l 1183 652 l 1183 318 l 743 318 l 743 204 l 1354 204 l 1354 111 l 743 111 l 743 -132 l 636 -132 l 636 111 l 35 111 l 35 204 l 636 204 l 636 318 l 203 318 l 203 652 l 636 652 l 636 753 l 389 753 l 389 945 l 82 945 l 82 1036 l 389 1036 l 389 1187 l 497 1187 l 497 1036 l 882 1036 l 882 1187 l 991 1187 l 991 1036 l 1307 1036 l 1307 945 l 991 945 l 991 753 l 743 753 m 636 564 l 311 564 l 311 407 l 636 407 l 636 564 m 743 564 l 743 407 l 1076 407 l 1076 564 l 743 564 m 882 945 l 497 945 l 497 833 l 882 833 l 882 945 z "},"乾":{"ha":1389,"x_min":32,"x_max":1354,"o":"m 421 827 l 635 827 l 635 330 l 421 330 l 421 207 l 699 207 l 699 113 l 421 113 l 421 -132 l 315 -132 l 315 113 l 32 113 l 32 207 l 315 207 l 315 330 l 106 330 l 106 827 l 315 827 l 315 945 l 49 945 l 49 1038 l 315 1038 l 315 1187 l 421 1187 l 421 1038 l 686 1038 l 686 945 l 421 945 l 421 827 m 537 743 l 205 743 l 205 621 l 537 621 l 537 743 m 205 541 l 205 415 l 537 415 l 537 541 l 205 541 m 893 996 l 1326 996 l 1326 899 l 852 899 q 716 682 800 785 l 646 751 q 842 1190 778 927 l 945 1168 q 893 996 922 1078 m 734 681 l 1164 681 l 1217 623 q 918 229 1008 375 q 837 50 837 96 q 878 9 837 18 q 1002 1 913 1 q 1183 12 1147 1 q 1224 50 1212 21 q 1250 256 1242 95 l 1354 210 q 1331 23 1345 79 q 1228 -84 1308 -64 q 1017 -97 1178 -97 q 811 -83 862 -97 q 723 22 723 -58 q 812 243 723 93 q 1059 585 901 395 l 734 585 l 734 681 z "},"謙":{"ha":1389,"x_min":32,"x_max":1363,"o":"m 1044 212 l 1044 -132 l 950 -132 l 950 319 l 839 319 l 839 -132 l 745 -132 l 745 213 q 528 -72 664 52 l 465 12 q 718 319 618 130 l 557 319 l 557 403 l 745 403 l 745 534 l 489 534 l 489 619 l 745 619 l 745 747 l 559 747 l 559 832 l 745 832 l 745 953 l 517 953 l 517 1040 l 711 1040 q 640 1153 679 1105 l 736 1185 q 812 1040 780 1119 l 987 1040 q 1057 1189 1033 1118 l 1157 1161 q 1091 1040 1124 1090 l 1329 1040 l 1329 953 l 1044 953 l 1044 832 l 1261 832 l 1261 619 l 1356 619 l 1356 534 l 1261 534 l 1261 319 l 1065 319 q 1363 40 1176 160 l 1299 -50 q 1044 212 1159 52 m 839 953 l 839 832 l 950 832 l 950 953 l 839 953 m 839 403 l 950 403 l 950 534 l 839 534 l 839 403 m 1044 403 l 1169 403 l 1169 534 l 1044 534 l 1044 403 m 839 619 l 950 619 l 950 747 l 839 747 l 839 619 m 1044 619 l 1169 619 l 1169 747 l 1044 747 l 1044 619 m 463 323 l 463 -58 l 169 -58 l 169 -132 l 75 -132 l 75 323 l 463 323 m 169 235 l 169 31 l 368 31 l 368 235 l 169 235 m 90 1131 l 447 1131 l 447 1043 l 90 1043 l 90 1131 m 32 930 l 501 930 l 501 839 l 32 839 l 32 930 m 90 726 l 448 726 l 448 639 l 90 639 l 90 726 m 90 528 l 448 528 l 448 441 l 90 441 l 90 528 z "},"困":{"ha":1389,"x_min":97,"x_max":1290,"o":"m 775 676 q 1157 279 909 444 l 1089 194 q 742 583 858 371 l 742 96 l 637 96 l 637 568 q 301 178 520 335 l 235 258 q 604 676 467 407 l 260 676 l 260 766 l 637 766 l 637 986 l 742 986 l 742 766 l 1126 766 l 1126 676 l 775 676 m 1290 1124 l 1290 -132 l 1180 -132 l 1180 -43 l 207 -43 l 207 -132 l 97 -132 l 97 1124 l 1290 1124 m 207 1032 l 207 52 l 1180 52 l 1180 1032 l 207 1032 z "},"坤":{"ha":1389,"x_min":25,"x_max":1291,"o":"m 222 863 l 222 1177 l 330 1177 l 330 863 l 478 863 l 478 764 l 330 764 l 330 254 q 473 310 401 280 l 484 216 q 64 50 307 127 l 25 157 q 210 213 135 188 q 222 217 217 215 l 222 764 l 45 764 l 45 863 l 222 863 m 850 961 l 850 1187 l 953 1187 l 953 961 l 1291 961 l 1291 233 l 953 233 l 953 -132 l 850 -132 l 850 233 l 526 233 l 526 961 l 850 961 m 629 868 l 629 647 l 850 647 l 850 868 l 629 868 m 629 557 l 629 328 l 850 328 l 850 557 l 629 557 m 1187 328 l 1187 557 l 953 557 l 953 328 l 1187 328 m 1187 647 l 1187 868 l 953 868 l 953 647 l 1187 647 z "},"艮":{"ha":1389,"x_min":74,"x_max":1358,"o":"m 752 498 q 888 268 805 366 q 1185 515 1046 380 l 1278 440 q 954 201 1121 300 q 1358 -17 1087 80 l 1284 -115 q 981 36 1099 -45 q 677 407 780 176 q 641 498 663 438 l 351 498 l 351 36 q 777 157 566 85 l 786 61 q 115 -128 474 -54 l 74 -21 q 227 9 187 0 q 237 11 232 10 l 237 1125 l 1141 1125 l 1141 498 l 752 498 m 1028 1032 l 351 1032 l 351 859 l 1028 859 l 1028 1032 m 1028 770 l 351 770 l 351 587 l 1028 587 l 1028 770 z "},"師":{"ha":1389,"x_min":85,"x_max":1354,"o":"m 930 802 l 930 1020 l 614 1020 l 614 1116 l 1354 1116 l 1354 1020 l 1032 1020 l 1032 802 l 1305 802 l 1305 181 q 1280 100 1305 123 q 1203 79 1257 79 q 1101 85 1168 79 l 1080 188 q 1175 180 1131 180 q 1205 195 1200 180 q 1207 214 1207 203 l 1207 709 l 1032 709 l 1032 -132 l 930 -132 l 930 709 l 776 709 l 776 52 l 677 52 l 677 802 l 930 802 m 240 1036 q 285 1189 264 1099 l 395 1168 q 338 1036 368 1095 l 570 1036 l 570 631 l 184 631 l 184 453 l 587 453 l 587 17 l 184 17 l 184 -94 l 85 -94 l 85 1036 l 240 1036 m 184 946 l 184 722 l 472 722 l 472 946 l 184 946 m 184 361 l 184 110 l 488 110 l 488 361 l 184 361 z "},"需":{"ha":1389,"x_min":35,"x_max":1354,"o":"m 637 979 l 637 1061 l 199 1061 l 199 1143 l 1189 1143 l 1189 1061 l 742 1061 l 742 979 l 1311 979 l 1311 725 l 1202 725 l 1202 899 l 742 899 l 742 562 l 637 562 l 637 899 l 183 899 l 183 725 l 76 725 l 76 979 l 637 979 m 689 329 l 1234 329 l 1234 -26 q 1210 -102 1234 -79 q 1122 -125 1185 -125 q 996 -117 1055 -125 l 977 -20 q 1093 -31 1047 -31 q 1122 -18 1118 -31 q 1124 -1 1124 -12 l 1124 245 l 899 245 l 899 -98 l 797 -98 l 797 245 l 587 245 l 587 -98 l 485 -98 l 485 245 l 271 245 l 271 -135 l 163 -135 l 163 329 l 580 329 q 616 425 600 376 l 35 425 l 35 511 l 1354 511 l 1354 425 l 730 425 q 689 329 712 376 m 253 822 l 559 822 l 559 751 l 253 751 l 253 822 m 253 676 l 559 676 l 559 606 l 253 606 l 253 676 m 818 822 l 1132 822 l 1132 751 l 818 751 l 818 822 m 818 676 l 1132 676 l 1132 606 l 818 606 l 818 676 z "},"升":{"ha":1389,"x_min":35,"x_max":1354,"o":"m 515 1002 l 515 635 l 915 635 l 915 1187 l 1029 1187 l 1029 635 l 1354 635 l 1354 536 l 1029 536 l 1029 -132 l 915 -132 l 915 536 l 515 536 q 429 125 508 279 q 283 -63 373 16 q 200 -127 253 -90 l 117 -44 q 312 152 251 43 q 382 353 361 240 q 400 536 396 424 l 35 536 l 35 635 l 401 635 l 401 960 q 165 895 290 922 l 111 982 q 669 1182 419 1048 l 745 1107 q 515 1002 613 1039 z "},"小":{"ha":1389,"x_min":47,"x_max":1346,"o":"m 636 1174 l 750 1174 l 750 18 q 725 -79 750 -51 q 596 -113 695 -113 q 404 -106 492 -113 l 379 12 q 583 -1 488 -1 q 629 11 620 -1 q 636 43 636 20 l 636 1174 m 47 236 q 256 893 195 464 l 368 868 q 144 160 304 415 l 47 236 m 1236 164 q 975 884 1112 594 l 1078 929 q 1346 224 1230 622 l 1236 164 z "},"人":{"ha":1389,"x_min":45,"x_max":1352,"o":"m 746 1164 l 746 1031 q 811 611 746 792 q 983 302 871 445 q 1352 -4 1130 117 l 1284 -110 q 832 330 999 59 q 699 655 745 473 q 549 256 648 418 q 123 -115 411 30 l 45 -20 q 551 498 413 140 q 631 1023 631 704 l 631 1164 l 746 1164 z "},"漸":{"ha":1389,"x_min":20,"x_max":1354,"o":"m 543 827 l 543 938 l 320 938 l 320 1031 l 543 1031 l 543 1187 l 637 1187 l 637 1031 l 854 1031 l 854 938 l 637 938 l 637 827 l 833 827 l 833 330 l 637 330 l 637 211 l 861 211 l 861 119 l 637 119 l 637 -132 l 543 -132 l 543 119 l 303 119 l 303 211 l 543 211 l 543 330 l 353 330 l 353 827 l 543 827 m 543 739 l 439 739 l 439 624 l 543 624 l 543 739 m 637 739 l 637 624 l 749 624 l 749 739 l 637 739 m 543 543 l 439 543 l 439 416 l 543 416 l 543 543 m 637 543 l 637 416 l 749 416 l 749 543 l 637 543 m 913 1069 l 927 1072 q 1259 1170 1120 1107 l 1324 1086 q 1011 995 1179 1025 l 1011 747 l 1354 747 l 1354 650 l 1232 650 l 1232 -132 l 1135 -132 l 1135 650 l 1011 650 l 1011 603 q 983 123 1011 289 q 901 -127 959 -14 l 817 -64 q 899 241 879 61 q 913 602 913 378 l 913 1069 m 228 893 q 53 1100 155 1002 l 127 1166 q 304 966 222 1080 l 228 893 m 201 542 q 20 751 104 672 l 95 818 q 278 616 190 733 l 201 542 m 39 -57 q 205 416 132 123 l 296 366 q 131 -127 235 87 l 39 -57 z "},"損":{"ha":1389,"x_min":25,"x_max":1362,"o":"m 221 920 l 221 1187 l 327 1187 l 327 920 l 457 920 l 457 821 l 327 821 l 327 562 q 453 613 383 582 l 467 519 q 327 458 391 484 l 327 -26 q 300 -107 327 -84 q 214 -129 275 -129 q 87 -119 149 -129 l 70 -14 q 186 -25 142 -25 q 215 -18 209 -25 q 221 8 221 -11 l 221 416 l 214 414 q 58 360 136 385 l 25 463 q 221 524 155 500 l 221 821 l 37 821 l 37 920 l 221 920 m 1222 1136 l 1222 847 l 566 847 l 566 1136 l 1222 1136 m 669 1053 l 669 929 l 1116 929 l 1116 1053 l 669 1053 m 1282 758 l 1282 127 l 509 127 l 509 758 l 1282 758 m 612 676 l 612 575 l 1176 575 l 1176 676 l 612 676 m 612 498 l 612 397 l 1176 397 l 1176 498 l 612 498 m 612 318 l 612 208 l 1176 208 l 1176 318 l 612 318 m 408 -57 q 699 119 581 5 l 786 58 q 484 -140 635 -75 l 408 -57 m 1279 -131 q 990 58 1145 -28 l 1068 121 q 1362 -53 1230 40 l 1279 -131 z "},"泰":{"ha":1389,"x_min":35,"x_max":1364,"o":"m 410 437 q 549 311 490 376 l 476 241 q 355 358 427 296 l 341 370 q 104 203 238 277 l 35 288 q 334 503 203 367 q 406 587 376 545 l 47 587 l 47 675 l 461 675 q 514 779 490 724 l 518 789 l 174 789 l 174 873 l 551 873 l 555 886 q 585 985 572 933 l 118 985 l 118 1071 l 606 1071 q 627 1192 619 1135 l 736 1181 q 715 1071 725 1115 l 1270 1071 l 1270 985 l 694 985 q 661 873 679 930 l 1213 873 l 1213 789 l 869 789 q 941 675 900 732 l 1341 675 l 1341 587 l 1013 587 q 1364 355 1138 459 l 1295 261 q 1076 397 1185 316 q 935 277 1021 342 l 865 337 q 1001 459 942 391 q 882 587 930 522 l 532 587 q 410 437 475 504 m 762 789 l 631 789 q 579 675 608 731 l 824 675 q 762 789 793 724 m 654 532 l 760 532 l 760 -22 q 729 -113 760 -89 q 650 -132 705 -132 q 494 -121 581 -132 l 468 -18 q 623 -32 559 -32 q 651 -18 646 -32 q 654 1 654 -11 l 654 532 m 1186 -46 q 832 168 1035 69 l 886 241 q 1254 45 1081 156 l 1186 -46 m 155 45 q 536 222 359 115 l 568 135 q 214 -52 377 18 l 155 45 z "},"大":{"ha":1389,"x_min":56,"x_max":1353,"o":"m 764 722 q 996 289 827 495 q 1353 -11 1150 101 l 1282 -114 q 891 239 1047 27 q 707 589 779 390 q 127 -121 592 86 l 56 -29 q 485 322 330 83 q 629 722 607 511 l 68 722 l 68 828 l 633 828 l 633 1174 l 746 1174 l 746 828 l 1321 828 l 1321 722 l 764 722 z "},"巽":{"ha":1389,"x_min":35,"x_max":1354,"o":"m 239 858 l 239 768 q 257 727 239 733 q 391 716 286 716 q 549 727 507 716 q 577 759 572 732 q 583 836 583 787 l 682 805 q 663 688 680 724 q 570 641 644 650 q 368 632 497 632 q 178 650 218 632 q 136 726 136 668 l 136 940 l 521 940 l 521 1048 l 104 1048 l 104 1131 l 623 1131 l 623 858 l 239 858 m 843 858 l 843 769 q 862 728 843 734 q 989 720 884 720 q 1161 729 1128 720 q 1188 764 1185 735 q 1196 834 1194 821 l 1295 797 q 1295 786 1295 789 q 1272 682 1289 708 q 1193 642 1252 650 q 989 631 1112 631 q 786 650 829 631 q 741 727 741 669 l 741 940 l 1120 940 l 1120 1048 l 709 1048 l 709 1131 l 1225 1131 l 1225 858 l 843 858 m 391 494 l 391 591 l 503 591 l 503 494 l 872 494 l 872 591 l 983 591 l 983 494 l 1263 494 l 1263 407 l 983 407 l 983 256 l 1354 256 l 1354 167 l 35 167 l 35 256 l 391 256 l 391 407 l 126 407 l 126 494 l 391 494 m 872 407 l 503 407 l 503 256 l 872 256 l 872 407 m 58 -46 q 454 151 283 20 l 537 89 q 133 -135 355 -59 l 58 -46 m 1249 -131 q 842 83 1048 -7 l 918 151 q 1328 -49 1155 53 l 1249 -131 z "},"中":{"ha":1389,"x_min":123,"x_max":1262,"o":"m 635 922 l 635 1187 l 745 1187 l 745 922 l 1262 922 l 1262 232 l 1152 232 l 1152 329 l 745 329 l 745 -132 l 635 -132 l 635 329 l 235 329 l 235 224 l 123 224 l 123 922 l 635 922 m 235 821 l 235 431 l 635 431 l 635 821 l 235 821 m 1152 431 l 1152 821 l 745 821 l 745 431 l 1152 431 z "},"同":{"ha":1389,"x_min":110,"x_max":1279,"o":"m 989 632 l 989 214 l 496 214 l 496 109 l 391 109 l 391 632 l 989 632 m 883 545 l 496 545 l 496 302 l 883 302 l 883 545 m 1279 1116 l 1279 3 q 1242 -92 1279 -64 q 1131 -115 1211 -115 q 887 -106 1007 -115 l 867 3 q 1113 -11 993 -11 q 1164 4 1153 -11 q 1171 33 1171 14 l 1171 1021 l 218 1021 l 218 -132 l 110 -132 l 110 1116 l 1279 1116 m 328 875 l 1060 875 l 1060 786 l 328 786 l 328 875 z "},"屯":{"ha":1389,"x_min":54,"x_max":1340,"o":"m 620 376 l 620 897 l 532 888 q 94 852 336 867 l 54 946 q 620 991 261 956 l 620 1187 l 728 1187 l 728 1005 q 1192 1083 939 1031 l 1264 996 q 728 909 996 942 l 728 376 l 1079 376 l 1079 812 l 1187 812 l 1187 279 l 728 279 l 728 78 q 745 22 728 37 q 966 -1 770 -1 q 1167 11 1120 -1 q 1220 74 1210 20 q 1235 224 1230 124 l 1340 185 q 1323 22 1334 68 q 1259 -72 1307 -46 q 1174 -94 1227 -89 q 974 -100 1100 -100 q 719 -87 780 -100 q 630 -25 650 -75 q 620 49 620 1 l 620 279 l 289 279 l 289 160 l 179 160 l 179 774 l 289 774 l 289 376 l 620 376 z "},"否":{"ha":1389,"x_min":28,"x_max":1349,"o":"m 812 1024 q 743 950 781 989 l 743 492 l 636 492 l 636 849 q 90 509 393 638 l 28 591 q 675 1024 418 749 l 82 1024 l 82 1118 l 1305 1118 l 1305 1024 l 812 1024 m 1198 439 l 1198 -132 l 1086 -132 l 1086 -36 l 304 -36 l 304 -132 l 192 -132 l 192 439 l 1198 439 m 304 347 l 304 58 l 1086 58 l 1086 347 l 304 347 m 1276 534 q 804 835 1055 698 l 872 905 q 1349 619 1107 791 l 1276 534 z "},"比":{"ha":1389,"x_min":31,"x_max":1345,"o":"m 288 742 l 648 742 l 648 642 l 288 642 l 288 71 q 656 184 529 136 l 663 87 q 69 -91 407 -16 l 31 13 q 174 43 90 25 l 174 1139 l 288 1139 l 288 742 m 851 718 q 1218 945 1054 809 l 1299 860 q 851 612 1058 690 l 851 83 q 890 32 851 41 q 1044 24 926 24 q 1168 34 1131 24 q 1212 71 1202 43 q 1233 275 1223 104 l 1234 307 l 1345 268 q 1323 32 1339 111 q 1228 -71 1305 -52 q 998 -87 1164 -87 q 798 -64 848 -87 q 739 46 739 -37 l 739 1164 l 851 1164 l 851 718 z "},"復":{"ha":1389,"x_min":25,"x_max":1362,"o":"m 829 469 q 770 385 802 425 l 1177 385 l 1238 336 q 985 79 1135 187 l 994 75 q 1362 -28 1116 23 l 1308 -127 q 892 22 1061 -71 q 459 -135 689 -88 l 399 -43 q 804 79 643 -5 q 635 243 712 146 q 467 129 554 176 l 398 205 q 711 469 601 311 l 559 469 l 559 885 q 486 806 526 846 l 411 871 q 625 1189 548 1004 l 726 1168 q 677 1061 705 1114 l 1331 1061 l 1331 972 l 625 972 q 563 889 593 926 l 1242 889 l 1242 469 l 829 469 m 665 808 l 665 720 l 1135 720 l 1135 808 l 665 808 m 665 640 l 665 547 l 1135 547 l 1135 640 l 665 640 m 890 131 q 1083 301 1032 228 l 700 301 q 890 131 793 193 m 331 626 l 331 -132 l 224 -132 l 224 488 q 83 345 161 416 l 25 440 q 338 832 199 589 l 427 781 q 331 626 378 696 m 37 872 q 321 1187 213 1002 l 412 1137 q 98 789 290 932 l 37 872 z "},"未":{"ha":1389,"x_min":33,"x_max":1358,"o":"m 808 515 q 1358 99 1015 258 l 1286 1 q 745 461 940 182 l 745 -132 l 635 -132 l 635 452 q 101 -22 458 170 l 33 65 q 571 515 361 221 l 47 515 l 47 611 l 635 611 l 635 869 l 179 869 l 179 966 l 635 966 l 635 1187 l 745 1187 l 745 966 l 1207 966 l 1207 869 l 745 869 l 745 611 l 1341 611 l 1341 515 l 808 515 z "},"無":{"ha":1389,"x_min":35,"x_max":1354,"o":"m 1162 942 l 1162 699 l 1354 699 l 1354 606 l 1162 606 l 1162 361 l 1303 361 l 1303 268 l 85 268 l 85 361 l 262 361 l 262 606 l 35 606 l 35 699 l 262 699 l 262 937 q 146 818 210 870 l 69 884 q 304 1187 218 1002 l 411 1160 q 340 1035 376 1093 l 1271 1035 l 1271 942 l 1162 942 m 361 942 l 361 699 l 528 699 l 528 942 l 361 942 m 623 942 l 623 699 l 789 699 l 789 942 l 623 942 m 886 942 l 886 699 l 1063 699 l 1063 942 l 886 942 m 1063 606 l 886 606 l 886 361 l 1063 361 l 1063 606 m 789 606 l 623 606 l 623 361 l 789 361 l 789 606 m 528 606 l 361 606 l 361 361 l 528 361 l 528 606 m 61 -69 q 223 199 164 44 l 321 157 q 154 -135 256 -21 l 61 -69 m 525 -121 q 465 158 505 20 l 566 182 q 637 -96 612 47 l 525 -121 m 843 -103 q 749 170 805 51 l 846 201 q 951 -66 907 83 l 843 -103 m 1243 -115 q 1062 176 1167 39 l 1157 222 q 1344 -58 1263 90 l 1243 -115 z "},"明":{"ha":1389,"x_min":98,"x_max":1275,"o":"m 808 364 q 753 104 799 213 q 568 -134 702 -21 l 488 -54 q 631 108 583 20 q 704 471 704 243 l 704 1129 l 1275 1129 l 1275 -1 q 1253 -83 1275 -56 q 1147 -118 1225 -118 q 957 -109 1089 -118 l 937 0 q 1118 -16 1044 -16 q 1162 5 1156 -16 q 1166 39 1166 16 l 1166 364 l 808 364 m 811 456 l 1166 456 l 1166 705 l 811 705 l 811 479 q 811 456 811 463 m 811 796 l 1166 796 l 1166 1034 l 811 1034 l 811 796 m 571 1124 l 571 191 l 205 191 l 205 58 l 98 58 l 98 1124 l 571 1124 m 205 1029 l 205 714 l 467 714 l 467 1029 l 205 1029 m 205 624 l 205 286 l 467 286 l 467 624 l 205 624 z "},"妄":{"ha":1389,"x_min":35,"x_max":1354,"o":"m 343 939 l 343 760 q 384 709 343 717 q 690 694 460 694 q 1229 714 888 694 l 1229 616 q 824 605 1009 605 q 756 606 813 605 l 675 607 q 595 468 627 519 l 1354 468 l 1354 376 l 1074 376 q 873 108 998 216 q 1308 -43 1122 30 l 1236 -132 q 778 41 1008 -33 q 488 -70 643 -30 q 133 -131 348 -106 l 82 -37 q 649 80 431 -12 l 632 85 q 299 172 460 136 l 244 184 q 404 376 326 270 l 35 376 l 35 468 l 468 468 q 475 479 471 473 q 554 608 519 545 q 465 611 495 610 q 308 623 339 614 q 231 734 231 642 l 231 939 l 62 939 l 62 1031 l 636 1031 l 636 1187 l 745 1187 l 745 1031 l 1325 1031 l 1325 939 l 343 939 m 758 142 q 951 376 873 227 l 534 376 q 425 230 486 306 q 619 180 507 211 l 758 142 z "},"有":{"ha":1389,"x_min":26,"x_max":1341,"o":"m 454 739 l 1154 739 l 1154 -5 q 1133 -89 1154 -64 q 1022 -121 1107 -121 q 812 -113 913 -121 l 791 -11 q 998 -24 924 -24 q 1038 -14 1029 -24 q 1044 20 1044 -5 l 1044 187 l 458 187 l 458 -132 l 349 -132 l 349 612 q 96 403 242 498 l 26 488 q 440 917 302 654 l 49 917 l 49 1008 l 484 1008 q 546 1190 524 1107 l 660 1177 q 602 1008 637 1093 l 1341 1008 l 1341 917 l 560 917 q 454 739 503 804 m 458 649 l 458 511 l 1044 511 l 1044 649 l 458 649 m 458 425 l 458 273 l 1044 273 l 1044 425 l 458 425 z "},"履":{"ha":1389,"x_min":36,"x_max":1361,"o":"m 806 328 l 673 328 l 673 657 l 1253 657 l 1253 328 l 921 328 q 863 267 893 297 l 1193 267 l 1247 221 q 1046 48 1174 136 q 1361 -44 1194 -14 l 1304 -130 q 958 -5 1111 -85 q 591 -137 787 -98 l 534 -54 q 873 47 728 -24 q 734 160 782 111 q 595 78 669 114 l 532 142 q 806 328 689 208 m 1156 588 l 769 588 l 769 528 l 1156 528 l 1156 588 m 769 463 l 769 397 l 1156 397 l 1156 463 l 769 463 m 960 92 q 1093 192 1041 139 l 815 192 q 960 92 882 136 m 481 439 l 481 -132 l 383 -132 l 383 322 q 290 233 336 272 l 237 318 q 484 608 376 435 l 566 561 q 481 439 526 498 m 1262 1145 l 1262 875 l 237 875 l 237 575 q 217 172 237 317 q 125 -130 195 12 l 36 -56 q 114 248 96 79 q 127 583 127 374 l 127 1145 l 1262 1145 m 1154 1064 l 237 1064 l 237 954 l 1154 954 l 1154 1064 m 783 791 l 1312 791 l 1312 713 l 726 713 q 614 605 677 656 l 545 663 q 717 868 659 751 l 814 843 q 783 791 798 815 m 254 624 q 476 868 395 725 l 561 831 q 308 550 463 660 l 254 624 z "},"旅":{"ha":1389,"x_min":26,"x_max":1368,"o":"m 321 859 q 317 659 321 760 l 564 659 q 528 -28 560 126 q 481 -105 515 -84 q 389 -123 452 -123 q 271 -114 329 -123 l 252 -8 q 372 -21 330 -21 q 420 7 411 -21 q 438 125 429 34 q 459 526 454 289 l 460 560 l 313 560 q 269 218 300 352 q 104 -117 224 37 l 26 -35 q 173 277 134 102 q 218 859 218 477 l 37 859 l 37 954 l 271 954 l 271 1187 l 376 1187 l 376 954 l 619 954 l 619 859 l 321 859 m 933 578 q 871 543 898 558 l 871 -132 l 766 -132 l 766 492 l 755 487 q 644 441 706 465 l 587 526 q 1139 856 924 640 l 1223 791 q 1016 629 1147 718 q 1070 415 1034 518 q 1250 608 1162 499 l 1332 536 q 1105 328 1217 414 q 1368 7 1193 138 l 1291 -83 q 1006 307 1092 92 q 933 578 958 427 m 820 971 l 1333 971 l 1333 874 l 775 874 q 640 671 720 761 l 572 752 q 786 1194 709 917 l 889 1171 q 820 971 858 1060 z "},"豫":{"ha":1389,"x_min":35,"x_max":1372,"o":"m 1059 193 q 1062 125 1062 158 q 1029 -76 1062 -19 q 918 -132 997 -132 q 795 -124 863 -132 l 777 -31 q 897 -42 835 -42 q 947 -9 937 -42 q 965 159 965 44 q 962 222 965 176 q 583 -67 798 45 l 518 8 q 836 214 685 85 q 941 315 898 266 q 922 366 932 344 q 566 153 755 232 l 506 231 q 886 438 721 304 q 861 475 876 455 q 610 365 726 399 l 553 440 q 899 589 735 489 l 604 589 l 604 829 q 570 801 589 817 l 504 869 q 777 1173 671 986 l 844 1124 l 1092 1124 l 1142 1074 q 1018 901 1069 965 l 1305 901 l 1305 589 l 1035 589 q 937 521 998 561 q 1015 381 982 460 q 1234 554 1138 460 l 1304 481 q 1053 313 1196 392 q 1372 64 1175 156 l 1311 -34 q 1059 193 1164 53 m 699 673 l 904 673 l 904 818 l 699 818 l 699 673 m 913 901 q 1006 1043 972 977 l 800 1043 q 680 901 737 961 l 913 901 m 997 673 l 1208 673 l 1208 818 l 997 818 l 997 673 m 351 820 q 416 743 381 787 l 347 681 l 512 681 l 569 629 q 484 344 524 440 l 394 367 q 462 588 441 483 l 341 588 l 341 -24 q 308 -114 341 -91 q 226 -132 283 -132 q 111 -122 173 -132 l 93 -18 q 211 -30 155 -30 q 239 -17 234 -30 q 241 2 241 -11 l 241 588 l 35 588 l 35 681 l 337 681 q 114 922 239 816 l 179 985 q 295 879 244 931 q 412 1036 373 970 l 61 1036 l 61 1128 l 490 1128 l 549 1069 q 351 820 446 924 z "},"兌":{"ha":1389,"x_min":33,"x_max":1351,"o":"m 1027 804 q 876 1035 943 909 l 564 1035 l 564 1131 l 940 1131 q 1091 896 1007 994 q 1351 677 1194 775 l 1276 576 q 1111 712 1191 633 l 1111 357 l 896 357 l 896 49 q 918 3 896 13 q 1030 -5 937 -5 q 1166 3 1138 -5 q 1208 58 1198 12 q 1221 208 1217 104 l 1329 168 q 1284 -66 1323 -24 q 1204 -100 1260 -93 q 1028 -109 1139 -109 q 845 -92 888 -109 q 786 7 786 -71 l 786 357 l 587 357 q 452 22 576 144 q 115 -132 342 -89 l 58 -35 q 383 106 280 -5 q 475 357 467 195 l 290 357 l 290 720 q 110 563 212 637 l 33 644 q 297 895 188 749 q 414 1084 355 974 l 511 1035 q 364 804 443 903 l 1027 804 m 396 713 l 396 452 l 1004 452 l 1004 713 l 396 713 z "},"咸":{"ha":1389,"x_min":29,"x_max":1365,"o":"m 1038 401 q 1043 409 1040 404 q 1208 761 1135 565 l 1304 710 q 1078 270 1206 464 q 1189 50 1131 123 q 1223 20 1213 20 q 1272 228 1254 20 l 1365 163 q 1314 -63 1344 -1 q 1237 -129 1282 -129 q 1139 -66 1195 -129 q 1002 165 1067 16 q 720 -125 875 0 l 642 -50 q 955 273 834 98 q 960 281 958 277 q 909 496 930 385 q 857 867 871 692 l 236 867 l 236 561 q 218 180 236 310 q 119 -126 196 15 l 29 -50 q 112 231 93 68 q 127 574 127 362 l 127 961 l 849 961 q 836 1187 841 1060 l 944 1187 q 958 961 951 1044 l 1332 961 l 1332 867 l 966 867 q 1038 401 991 571 m 765 519 l 765 147 l 418 147 l 418 79 l 319 79 l 319 519 l 765 519 m 418 432 l 418 236 l 668 236 l 668 432 l 418 432 m 286 734 l 799 734 l 799 646 l 286 646 l 286 734 m 1168 972 q 1015 1131 1091 1070 l 1095 1183 q 1253 1028 1173 1124 l 1168 972 z "},"噬":{"ha":1389,"x_min":60,"x_max":1356,"o":"m 626 942 l 585 942 q 485 766 543 846 l 415 838 q 555 1177 511 972 l 654 1161 q 619 1034 635 1082 l 861 1034 l 861 942 l 720 942 q 724 932 722 938 q 775 818 753 876 l 684 786 q 626 942 665 865 m 1065 942 l 1000 942 q 916 771 965 844 l 836 832 q 964 1181 917 956 l 1061 1162 q 1029 1034 1045 1090 l 1350 1034 l 1350 942 l 1167 942 q 1235 836 1205 888 l 1144 798 q 1065 942 1107 878 m 386 1069 l 386 155 l 155 155 l 155 41 l 60 41 l 60 1069 l 386 1069 m 155 972 l 155 255 l 293 255 l 293 972 l 155 972 m 929 635 l 929 12 l 1356 12 l 1356 -85 l 387 -85 l 387 12 l 826 12 l 826 635 l 456 635 l 456 728 l 1304 728 l 1304 635 l 929 635 m 646 380 q 804 196 722 304 l 741 117 q 615 293 677 217 q 493 81 574 186 l 420 155 q 587 561 541 293 l 682 534 q 646 380 668 456 m 1166 389 q 1343 197 1271 283 l 1278 118 q 1135 298 1216 209 q 1019 90 1087 180 l 950 167 q 1107 564 1067 309 l 1203 539 q 1166 389 1185 452 z "},"坎":{"ha":1389,"x_min":29,"x_max":1354,"o":"m 843 861 l 703 861 q 559 572 663 721 l 477 640 q 688 1192 630 857 l 789 1171 q 737 958 760 1036 l 1263 958 l 1329 904 q 1195 563 1267 699 l 1100 603 q 1206 861 1173 740 l 946 861 l 946 703 q 1033 361 945 549 q 1354 -16 1141 128 l 1286 -126 q 905 458 981 123 q 836 220 882 319 q 524 -133 731 -6 l 446 -40 q 760 296 670 79 q 843 715 843 494 l 843 861 m 231 844 l 231 1179 l 338 1179 l 338 844 l 485 844 l 485 746 l 338 746 l 338 262 q 507 334 433 300 l 519 233 q 71 52 308 130 l 29 160 q 231 224 116 185 l 231 746 l 47 746 l 47 844 l 231 844 z "},"壯":{"ha":1389,"x_min":35,"x_max":1354,"o":"m 220 804 l 401 804 l 401 1187 l 507 1187 l 507 -132 l 401 -132 l 401 399 l 282 399 q 260 153 281 252 q 115 -123 227 -2 l 35 -45 q 172 254 147 70 q 180 399 181 323 l 44 399 l 44 493 l 401 493 l 401 713 l 117 713 l 117 1124 l 220 1124 l 220 804 m 899 772 l 899 1181 l 1010 1181 l 1010 772 l 1354 772 l 1354 669 l 1010 669 l 1010 45 l 1329 45 l 1329 -58 l 587 -58 l 587 45 l 899 45 l 899 669 l 565 669 l 565 772 l 899 772 z "},"夬":{"ha":1389,"x_min":46,"x_max":1346,"o":"m 756 456 q 993 172 828 308 q 1346 -12 1123 64 l 1280 -113 q 890 120 1049 -31 q 692 381 764 239 q 500 71 633 189 q 131 -125 363 -51 l 63 -33 q 436 156 297 28 q 608 456 557 266 l 46 456 l 46 553 l 623 553 l 623 869 l 196 869 l 196 968 l 623 968 l 623 1187 l 732 1187 l 732 968 l 1153 968 l 1153 553 l 1343 553 l 1343 456 l 756 456 m 1044 869 l 732 869 l 732 553 l 1044 553 l 1044 869 z "},"孚":{"ha":1389,"x_min":35,"x_max":1354,"o":"m 261 1095 q 326 1096 293 1095 q 1133 1179 768 1104 l 1207 1093 q 366 1000 772 1010 l 350 1000 q 179 646 283 788 l 93 718 q 261 1095 207 869 m 762 410 l 762 359 l 1354 359 l 1354 262 l 762 262 l 762 -17 q 728 -108 762 -81 q 621 -131 696 -131 q 435 -121 538 -131 l 415 -18 q 603 -29 541 -29 q 642 -20 634 -29 q 650 14 650 -11 l 650 262 l 35 262 l 35 359 l 650 359 l 650 458 q 903 585 813 523 l 258 585 l 258 676 l 1061 676 l 1118 608 q 762 410 944 494 m 675 714 q 582 957 646 833 l 677 994 q 782 760 743 876 l 675 714 m 1147 696 q 947 977 1060 854 l 1030 1034 q 1244 764 1156 902 l 1147 696 z "},"恆":{"ha":1389,"x_min":24,"x_max":1352,"o":"m 741 1010 q 740 999 740 1006 l 734 918 l 732 891 l 726 819 l 1204 819 q 1149 30 1181 372 l 1149 23 l 1352 23 l 1352 -74 l 422 -74 l 422 23 l 1040 23 l 1040 30 l 1040 33 q 1093 693 1076 399 l 1095 725 l 719 725 l 716 694 q 652 162 698 468 l 547 174 q 637 1010 619 613 l 435 1010 l 435 1108 l 1317 1108 l 1317 1010 l 741 1010 m 24 501 q 83 903 68 663 l 174 890 q 111 450 158 609 l 24 501 m 427 614 q 339 892 393 752 l 401 949 q 502 682 458 828 l 427 614 m 222 1187 l 327 1187 l 327 -132 l 222 -132 l 222 1187 m 1002 428 q 738 576 851 524 l 785 653 q 1046 513 941 575 l 1002 428 m 968 142 q 705 309 823 248 l 751 385 q 1021 227 873 326 l 968 142 z "},"晉":{"ha":1389,"x_min":35,"x_max":1354,"o":"m 193 779 q 342 1006 278 889 l 432 960 q 307 783 366 856 q 524 800 444 792 q 467 879 496 843 l 545 920 q 693 704 624 824 l 602 659 q 566 728 582 700 q 142 684 322 696 l 114 777 q 169 778 151 777 q 193 779 182 778 m 767 778 q 897 1007 842 880 l 993 961 q 873 782 938 867 q 1107 798 1002 788 l 1103 804 q 1039 879 1077 837 l 1115 925 q 1291 711 1207 831 l 1204 659 q 1162 725 1181 698 q 751 684 1021 705 l 722 777 l 745 777 l 767 778 m 1165 435 l 1165 -132 l 1055 -132 l 1055 -65 l 332 -65 l 332 -132 l 220 -132 l 220 435 l 1165 435 m 332 350 l 332 231 l 1055 231 l 1055 350 l 332 350 m 332 147 l 332 22 l 1055 22 l 1055 147 l 332 147 m 118 1109 l 1270 1109 l 1270 1021 l 118 1021 l 118 1109 m 35 624 l 1354 624 l 1354 535 l 35 535 l 35 624 z "},"渙":{"ha":1389,"x_min":31,"x_max":1360,"o":"m 1137 528 l 994 528 q 907 607 907 528 l 907 812 l 796 812 q 764 618 793 692 q 654 475 734 542 l 590 540 q 696 692 673 604 q 711 812 706 733 l 576 812 l 576 395 l 476 395 l 476 829 q 402 771 444 801 l 344 843 q 647 1175 534 972 l 708 1132 l 1019 1132 l 1075 1080 q 928 899 1002 977 l 1239 899 l 1239 395 l 1137 395 l 1137 528 m 1137 610 l 1137 812 l 996 812 l 996 635 q 1023 610 996 610 l 1137 610 m 820 899 q 935 1046 889 975 l 674 1046 q 551 899 631 983 l 820 899 m 856 204 q 661 -26 793 60 q 412 -130 564 -90 l 353 -43 q 627 73 528 2 q 768 249 725 144 l 361 249 l 361 339 l 791 339 l 791 461 l 896 461 l 896 339 l 1350 339 l 1350 249 l 930 249 q 1360 -24 1055 62 l 1297 -123 q 856 204 979 -23 m 258 888 q 69 1099 170 1009 l 147 1169 q 340 966 242 1090 l 258 888 m 224 538 q 31 747 131 659 l 107 819 q 301 615 212 731 l 224 538 m 47 -49 q 245 418 153 127 l 336 359 q 138 -123 255 85 l 47 -49 z "},"濟":{"ha":1389,"x_min":22,"x_max":1368,"o":"m 942 971 l 1013 928 q 889 772 958 847 l 889 528 l 800 528 l 800 774 q 729 859 772 812 q 711 622 730 696 q 623 557 696 557 q 551 564 593 557 l 538 643 q 603 636 576 636 q 635 667 627 636 q 648 802 646 708 l 571 802 q 418 538 552 642 l 355 597 q 485 802 461 668 l 385 802 l 385 882 l 709 882 q 668 924 688 904 l 728 971 l 357 971 l 357 1061 l 792 1061 l 792 1187 l 897 1187 l 897 1061 l 1343 1061 l 1343 971 l 942 971 m 932 971 l 738 971 q 848 838 789 922 q 932 971 905 913 m 1115 158 l 584 158 q 422 -139 566 -22 l 345 -66 q 452 63 421 -6 q 484 241 484 134 l 484 532 l 587 532 l 587 449 l 1115 449 l 1115 547 l 1221 547 l 1221 -132 l 1115 -132 l 1115 158 m 1115 243 l 1115 366 l 587 366 l 587 243 l 1115 243 m 986 872 q 1249 951 1127 892 l 1307 880 q 1210 846 1259 860 q 1368 606 1244 707 l 1308 534 q 1215 633 1250 581 q 1206 629 1212 631 q 969 553 1128 592 l 939 633 q 986 642 966 637 l 986 872 m 1136 825 q 1068 808 1098 814 l 1068 659 q 1181 690 1130 673 q 1136 825 1152 749 m 261 888 q 70 1097 171 1007 l 143 1168 q 339 968 237 1090 l 261 888 m 221 536 q 22 746 123 659 l 98 819 q 299 614 217 715 l 221 536 m 46 -47 q 261 418 159 133 l 349 359 q 138 -123 263 93 l 46 -47 z "},"萃":{"ha":1389,"x_min":35,"x_max":1354,"o":"m 635 240 l 635 338 l 742 338 l 742 240 l 1354 240 l 1354 144 l 742 144 l 742 -132 l 635 -132 l 635 144 l 35 144 l 35 240 l 635 240 m 411 1071 l 411 1187 l 516 1187 l 516 1071 l 865 1071 l 865 1187 l 973 1187 l 973 1071 l 1316 1071 l 1316 983 l 973 983 l 973 868 l 865 868 l 865 983 l 516 983 l 516 868 l 411 868 l 411 983 l 71 983 l 71 1071 l 411 1071 m 741 772 l 1279 772 l 1279 685 l 109 685 l 109 772 l 633 772 l 633 926 l 741 926 l 741 772 m 441 532 q 652 396 559 471 l 583 314 q 396 462 485 403 q 219 277 325 363 l 141 345 q 391 661 308 465 l 488 633 q 441 532 466 576 m 991 534 q 1242 385 1104 481 l 1171 298 q 949 456 1057 392 q 819 293 897 370 l 743 359 q 929 660 873 474 l 1031 633 q 991 534 1013 579 z "},"姤":{"ha":1389,"x_min":39,"x_max":1354,"o":"m 413 248 q 538 149 479 202 l 477 56 q 368 150 429 102 q 133 -121 281 -11 l 61 -41 q 286 212 203 54 q 75 338 183 284 q 180 807 133 524 l 39 807 l 39 907 l 195 907 q 231 1186 210 1015 l 326 1169 q 292 907 313 1053 l 519 907 q 413 248 501 479 m 328 306 q 420 801 397 494 l 420 807 l 277 807 q 193 404 239 578 l 189 388 q 328 306 264 348 m 623 1044 l 687 1049 q 1241 1143 976 1071 l 1309 1054 q 723 962 1051 989 l 723 762 l 1354 762 l 1354 667 l 723 667 l 723 603 q 680 119 723 321 q 601 -125 653 -6 l 516 -56 q 606 295 583 107 q 623 595 623 429 l 623 1044 m 1291 469 l 1291 -132 l 1192 -132 l 1192 -46 l 878 -46 l 878 -132 l 778 -132 l 778 469 l 1291 469 m 878 376 l 878 48 l 1192 48 l 1192 376 l 878 376 z "},"睽":{"ha":1389,"x_min":78,"x_max":1362,"o":"m 1145 834 q 1276 974 1209 890 l 1350 913 q 1211 773 1280 829 q 1362 664 1273 721 l 1293 578 q 1150 696 1211 640 l 1150 610 l 968 610 l 968 428 l 1305 428 l 1305 332 l 961 332 q 947 260 958 301 q 1318 -31 1133 138 l 1240 -115 q 917 176 1099 33 q 551 -122 825 -22 l 488 -28 q 751 117 650 14 q 857 332 836 203 l 517 332 l 517 428 l 861 428 l 861 610 l 688 610 l 688 690 q 554 575 632 636 l 490 656 q 663 803 595 728 q 536 920 594 874 l 593 981 q 720 870 658 932 q 815 1029 775 945 l 614 1029 l 614 1120 l 962 1120 q 1038 970 1000 1033 q 1153 1104 1107 1039 l 1232 1046 q 1089 898 1162 959 q 1145 834 1121 858 m 700 703 l 1143 703 q 914 1007 1012 826 q 700 703 836 840 m 460 1109 l 460 86 l 171 86 l 171 -12 l 78 -12 l 78 1109 l 460 1109 m 171 1017 l 171 803 l 367 803 l 367 1017 l 171 1017 m 171 711 l 171 498 l 367 498 l 367 711 l 171 711 m 171 407 l 171 180 l 367 180 l 367 407 l 171 407 z "}}}
